HIERARCHY
ROOT Hips
{
	OFFSET	0.00	0.00	0.00
	CHANNELS 6 Xposition Yposition Zposition Zrotation Xrotation Yrotation
	JOINT Spine
	{
		OFFSET	 0.00	0.01	 0.00
		CHANNELS 3 Zrotation Xrotation Yrotation
		JOINT Spine1
		{
			OFFSET	 0.00	 2.45913012437421	 0.00
			CHANNELS 3 Zrotation Xrotation Yrotation
            JOINT Neck
            {
                OFFSET	 0.00	 2.48462964506057	 0.00
                CHANNELS 3 Zrotation Xrotation Yrotation
                JOINT Head
                {
                    OFFSET	 0.00	 0.927524780924562	 0.00
                    CHANNELS 3 Zrotation Xrotation Yrotation
                    End Site 
                    {
                        OFFSET	 0.00	 1.14999962169752	 0.00
                    }
                }
            }
			JOINT LeftShoulder
			{
				OFFSET	 0.00	 2.48462964506057	 0.00
				CHANNELS 3 Zrotation Xrotation Yrotation
				JOINT LeftUpArm
				{
					OFFSET	 0.00	 1.24881979654096	 0.00
					CHANNELS 3 Zrotation Xrotation Yrotation
					JOINT LeftForeArm
					{
						OFFSET	 0.00	2.59758046908119	 0.00
						CHANNELS 3 Zrotation Xrotation Yrotation
						JOINT LeftHand
						{
							OFFSET	 0.00	2.45542024364365	 0.00
							CHANNELS 3 Zrotation Xrotation Yrotation
							JOINT LeftHandThumb 
							{
								OFFSET	 0.00	0.00	 0.00
								CHANNELS 3 Zrotation Xrotation Yrotation
								End Site
								{
									OFFSET	 0.00	0.00	1.00000003353624
								}
							}
							JOINT L_Wrist_End 
							{
								OFFSET	 0.00	0.99999967115358	 0.00
								CHANNELS 3 Zrotation Xrotation Yrotation
								End Site 
								{
									OFFSET	 0.00	 0.00	 0.00
								}
							}
						}
					}
				}
			}
			JOINT RightShoulder
			{
				OFFSET	 0.00	 2.48462964506057	 0.00
				CHANNELS 3 Zrotation Xrotation Yrotation
				JOINT RightUpArm
				{
					OFFSET	 0.00	 1.24881979654096	 0.00
					CHANNELS 3 Zrotation Xrotation Yrotation
					JOINT RightForeArm
					{
						OFFSET	 0.00	2.59758046908119	 0.00
						CHANNELS 3 Zrotation Xrotation Yrotation
						JOINT RightHand
						{
							OFFSET	 0.00	2.45542024364365	 0.00
							CHANNELS 3 Zrotation Xrotation Yrotation
							JOINT RightHandThumb 
							{
								OFFSET	 0.00	0.00	 0.00
								CHANNELS 3 Zrotation Xrotation Yrotation
								End Site
								{
									OFFSET	 0.00	0.00	1.00000003353624
								}
							}
							JOINT R_Wrist_End 
							{
								OFFSET	 0.00	0.99999967115358	 0.00
								CHANNELS 3 Zrotation Xrotation Yrotation
								End Site 
								{
									OFFSET	 0.00	 0.00	 0.00
								}
							}
						}
					}
				}
			}
		}
	}
	JOINT LeftUpLeg
	{
		OFFSET	 1.2719394002717	 0.00	 0.00
		CHANNELS 3 Zrotation Xrotation Yrotation
		JOINT LeftLowLeg
		{
			OFFSET	 0.00	-4.3429100912261	 0.00
			CHANNELS 3 Zrotation Xrotation Yrotation
			JOINT LeftFoot
			{
				OFFSET	 0.00	-4.48767017425826	 0.00
				CHANNELS 3 Zrotation Xrotation Yrotation
				JOINT LeftToeBase
                {
                    OFFSET	 0.00	0.00	 1.51507020887566
                    CHANNELS 3 Zrotation Xrotation Yrotation
                    End Site 
                    {
                        OFFSET	 0.00	0.00	 0.75000010571191
                    }
                }
			}
		}
	}
	JOINT RightUpLeg
	{
		OFFSET	 -1.2719393604653	 0.00	 0.00
		CHANNELS 3 Zrotation Xrotation Yrotation
		JOINT RightLowLeg
		{
			OFFSET	 0.00	-4.3429100912261	 0.00
			CHANNELS 3 Zrotation Xrotation Yrotation
			JOINT RightFoot
			{
				OFFSET	 0.00	-4.48767017425826	 0.00
				CHANNELS 3 Zrotation Xrotation Yrotation
				JOINT RightToeBase
                {
                    OFFSET	 0.00	0.00	 1.51507020887566
                    CHANNELS 3 Zrotation Xrotation Yrotation
                    End Site 
                    {
                        OFFSET	 0.00	0.00	 0.749999965609858
                    }
                }   
			}
		}
	}
}
MOTION 
Frames:	18 
Frame Time: 0.02 
  -3.6117401123046875 9.990700073242188 8.077449951171875 5.46443 80.0852 383.071 12.5761 -6.06919 11.5756 6.14752 -2.83271 3.1016 -59.3437 47.2017 792.16 158.906 -82.6614 159.661 -119.0061 -1.52302 -1.22186 8.73752 20.6375 -21.3531 0.0 98.9109 0.0 71.5088 31.6625 -15.3663 0.0 0.0 0.0 0.0 0.0 0.0 115.7265 10.8317 -14.1681 -8.28397 66.509 11.4661 0.0 82.8489 0.0 -53.9957 38.2976 10.567 0.0 0.0 0.0 0.0 0.0 0.0 34.6675 -22.4481 41.8173 0.0 38.3683 0.0 -18.8661 4.6708 -2.03816 0.0 -36.586998 0.0 2.79905 -13.285 -19.7734 0.0 60.0272 0.0 11.0982 -18.914799 -4.98762 0.0 -35.6062 0.0 
  -3.6133599853515626 9.989520263671874 8.0768798828125 6.12944 80.0158 382.666 12.4752 -6.17952 11.6085 5.81717 -2.42233 3.12576 -58.9773 46.97 792.046 159.593 -82.5558 160.102 -118.7619 -1.57955 -1.36994 8.68714 21.3091 -21.6997 0.0 99.2047 0.0 71.1596 31.4599 -15.0245 0.0 0.0 0.0 0.0 0.0 0.0 115.7276 10.7622 -13.8775 -8.12183 66.2193 11.7365 0.0 83.3861 0.0 -53.9707 38.16 10.6352 0.0 0.0 0.0 0.0 0.0 0.0 34.368 -22.6072 41.1131 0.0 38.3222 0.0 -18.726 4.6871004 -1.83738 0.0 -36.5251 0.0 2.72904 -13.1843 -19.9321 0.0 60.0635 0.0 11.1047 -18.9645 -5.10088 0.0 -35.558098 0.0 
  -3.6157598876953125 9.988590087890625 8.075830078125 7.01974 79.9278 382.111 12.3094 -6.29508 11.6051 5.49754 -1.89578 3.11646 -58.5283 46.639 791.859 160.986 -82.4475 161.308 -118.5721 -1.73424 -1.64085 8.78286 22.1789 -22.0016 0.0 99.521 0.0 71.1969 31.1324 -14.9639 0.0 0.0 0.0 0.0 0.0 0.0 115.6699 10.7461 -13.8831 -8.71589 65.718 12.9025 0.0 84.1543 0.0 -54.1583 38.1591 10.484 0.0 0.0 0.0 0.0 0.0 0.0 33.9504 -22.8147 40.1594 0.0 38.2473 0.0 -18.6196 4.6942997 -1.4864 0.0 -36.5735 0.0 2.64376 -13.0681 -20.1193 0.0 60.1166 0.0 11.0667 -19.0284 -5.30683 0.0 -35.6136 0.0 
  -3.6196099853515626 9.989219970703125 8.074979858398438 7.91073 79.773 381.571 12.1936 -6.37677 11.5997 5.08782 -1.19067 3.08747 -57.9776 46.2721 791.598 162.489 -82.2446 162.753 -118.352 -1.93386 -1.85962 8.98514 23.0732 -22.5874 0.0 99.9999 0.0 70.8125 30.9492 -14.7882 0.0 0.0 0.0 0.0 0.0 0.0 115.5813 10.7965 -13.6765 -9.02662 65.0375 13.8487 0.0 85.1961 0.0 -54.369 38.2002 10.6471 0.0 0.0 0.0 0.0 0.0 0.0 33.5094 -22.9981 39.1242 0.0 38.1474 0.0 -18.3424 4.6948996 -1.1005 0.0 -36.806297 0.0 2.62539 -12.8912 -20.2468 0.0 60.1182 0.0 11.0264 -19.113201 -5.56993 0.0 -35.6705 0.0 
  -3.623909912109375 9.990880126953124 8.07343994140625 8.36369 79.658 381.511 12.2044 -6.42828 11.6541 4.48364 -0.542447 3.10781 -57.3196 45.8472 791.261 164.317 -82.1082 164.357 -118.070404 -2.12553 -2.14517 9.32344 24.0968 -22.9671 0.0 100.579 0.0 71.0537 30.5149 -14.8409 0.0 0.0 0.0 0.0 0.0 0.0 115.5473 10.6014 -13.3513 -9.44791 64.4325 14.856 0.0 86.317 0.0 -54.6699 38.1312 10.9271 0.0 0.0 0.0 0.0 0.0 0.0 33.1488 -23.2985 38.1168 0.0 38.1176 0.0 -18.0404 4.7114 -0.907603 0.0 -36.8941 0.0 2.6696 -12.8081 -20.3548 0.0 60.1492 0.0 11.0047 -19.1557 -5.8537 0.0 -35.691498 0.0 
  -3.630539855957031 9.992919921875 8.071060180664062 8.76752 79.4691 381.57 12.2065 -6.34654 11.7473 3.86438 0.0150109 3.1781 -56.7312 45.5168 790.912 166.033 -81.9464 165.838 -117.730804 -2.22127 -2.37551 9.62386 25.0712 -23.465 0.0 101.315 0.0 70.8524 30.3572 -14.5843 0.0 0.0 0.0 0.0 0.0 0.0 115.4647 10.2302 -13.2005 -10.4119 63.7854 16.4492 0.0 87.4072 0.0 -55.5807 37.515 12.1606 0.0 0.0 0.0 0.0 0.0 0.0 32.7831 -23.6173 36.9243 0.0 38.0994 0.0 -17.9143 4.7535 -0.781164 0.0 -36.9011 0.0 2.74896 -12.6627 -20.5582 0.0 60.1711 0.0 10.8728 -19.2044 -6.21289 0.0 -35.6669 0.0 
  -3.638349914550781 9.99552978515625 8.067830200195312 9.17961 79.2879 381.653 12.0387 -6.23955 11.7765 3.49484 0.530688 3.21402 -56.3035 45.2524 790.482 168.593 -81.8709 168.312 -117.4867 -2.47872 -2.55776 9.99482 26.1369 -24.1081 0.0 102.037 0.0 70.8185 30.4 -14.3418 0.0 0.0 0.0 0.0 0.0 0.0 115.234604 9.78809 -12.6498 -10.7067 63.3728 17.3255 0.0 88.3959 0.0 -55.8281 37.2472 12.8332 0.0 0.0 0.0 0.0 0.0 0.0 32.377 -23.9701 35.646 0.0 38.0599 0.0 -17.7437 4.8422003 -0.649258 0.0 -37.025803 0.0 2.82519 -12.5438 -20.7665 0.0 60.2098 0.0 10.7832 -19.2387 -6.55036 0.0 -35.835197 0.0 
  -3.647909851074219 9.9977001953125 8.065009765625 9.57939 79.0513 381.769 11.8406 -6.04603 11.7956 3.15807 0.968014 3.24819 -56.0587 45.0587 790.263 170.258 -81.7282 169.899 -117.316605 -2.69058 -2.64334 10.5413 27.0703 -24.8231 0.0 102.807 0.0 70.7166 30.3558 -14.1087 0.0 0.0 0.0 0.0 0.0 0.0 114.996796 9.34752 -11.9858 -10.7724 62.9972 18.008 0.0 89.2929 0.0 -55.6186 37.4788 11.8101 0.0 0.0 0.0 0.0 0.0 0.0 32.005 -24.2641 34.4267 0.0 37.9952 0.0 -17.562 5.0360203 -0.599564 0.0 -37.2173 0.0 2.93803 -12.3521 -20.9909 0.0 60.2017 0.0 10.6996 -19.286098 -6.8817 0.0 -35.8438 0.0 
  -3.657489929199219 10.000599975585937 8.063159790039062 9.76948 78.9267 382.04 11.6079 -5.95029 11.8684 2.90815 1.41363 3.34516 -55.8799 44.939 790.007 172.209 -81.5936 171.682 -117.2214 -2.89298 -2.71542 11.2467 28.0098 -25.3305 0.0 103.49 0.0 71.3284 29.8644 -14.2981 0.0 0.0 0.0 0.0 0.0 0.0 114.8219 8.81353 -11.2623 -11.0822 62.7403 18.7398 0.0 90.0002 0.0 -55.9668 37.1257 11.8535 0.0 0.0 0.0 0.0 0.0 0.0 31.6692 -24.5817 33.3929 0.0 37.8663 0.0 -17.693 5.2573404 -0.701237 0.0 -37.2614 0.0 3.01431 -12.2713 -21.2598 0.0 60.186 0.0 10.5686 -19.314499 -7.18738 0.0 -35.7492 0.0 
  -3.6676400756835936 10.000900268554688 8.061129760742187 9.89694 78.73 382.386 11.3496 -5.81393 11.8997 2.74755 1.85559 3.40302 -55.7273 44.9263 789.692 173.699 -81.4772 173.179 -117.0751 -3.09463 -2.86203 11.8086 28.8497 -25.8273 0.0 104.1 0.0 71.7088 29.628 -14.2874 0.0 0.0 0.0 0.0 0.0 0.0 114.526505 8.39997 -11.0144 -12.05 62.4331 20.2984 0.0 90.574 0.0 -56.3507 36.6896 12.9281 0.0 0.0 0.0 0.0 0.0 0.0 31.4159 -24.8187 32.4389 0.0 37.7835 0.0 -17.6484 5.45162 -0.861553 0.0 -37.3942 0.0 3.10886 -12.1027 -21.5929 0.0 60.1603 0.0 10.5012 -19.315102 -7.3916 0.0 -35.7791 0.0 
  -3.678450012207031 10.002100219726563 8.058939819335938 9.97308 78.6095 382.685 11.0376 -5.70518 11.9701 2.67076 2.28195 3.51075 -55.6465 44.8265 789.508 175.555 -81.3738 174.818 -116.9581 -3.34273 -3.11336 12.252 29.7356 -26.303 0.0 104.529 0.0 71.9746 29.7025 -14.1798 0.0 0.0 0.0 0.0 0.0 0.0 114.1083 8.0315 -11.2065 -13.6468 62.0907 22.6749 0.0 91.1299 0.0 -56.429 36.2494 13.0969 0.0 0.0 0.0 0.0 0.0 0.0 31.2144 -25.039 31.6808 0.0 37.6874 0.0 -17.549 5.54922 -0.882525 0.0 -37.170097 0.0 3.18612 -12.0344 -21.8481 0.0 60.1619 0.0 10.4403 -19.307999 -7.5572 0.0 -35.8069 0.0 
  -3.6892800903320313 10.003800048828126 8.057440185546875 9.61846 78.5291 383.351 10.8504 -5.56474 12.062 2.43938 2.57957 3.62522 -55.5373 44.7849 789.293 176.891 -81.2172 176.04 -116.8644 -3.66075 -3.2964 12.8607 30.5834 -26.8735 0.0 104.878 0.0 72.0842 29.5834 -14.072 0.0 0.0 0.0 0.0 0.0 0.0 113.8458 7.53926 -11.0194 -14.6376 62.0062 24.1651 0.0 91.5161 0.0 -56.6315 35.8742 13.2305 0.0 0.0 0.0 0.0 0.0 0.0 31.1139 -25.2739 31.0189 0.0 37.6007 0.0 -17.5284 5.5721903 -0.778429 0.0 -37.292 0.0 3.31514 -12.0136 -22.0935 0.0 60.1152 0.0 10.4036 -19.267899 -7.65405 0.0 -35.9034 0.0 
  -3.7014700317382814 10.004500122070313 8.056539916992188 9.66101 78.3222 383.604 10.6426 -5.30552 12.122 2.14763 2.97641 3.70578 -55.2102 44.7795 788.865 177.684 -81.071 176.994 -116.7509 -4.07086 -3.54374 13.471 31.5134 -27.5394 0.0 105.158 0.0 72.0765 29.4181 -13.9523 0.0 0.0 0.0 0.0 0.0 0.0 113.6991 7.01692 -10.7631 -15.6724 62.1027 25.6481 0.0 91.8123 0.0 -56.8364 35.6014 13.2133 0.0 0.0 0.0 0.0 0.0 0.0 30.9861 -25.327 30.4072 0.0 37.4674 0.0 -17.3925 5.62642 -0.554047 0.0 -37.4445 0.0 3.43471 -11.8185 -22.3645 0.0 60.0239 0.0 10.3101 -19.2533 -7.77408 0.0 -35.959297 0.0 
  -3.7135699462890623 10.005700073242188 8.056589965820313 9.19336 78.2726 384.221 10.4378 -5.15554 12.247 1.94755 3.23829 3.85833 -54.9694 44.7698 788.536 178.516 -81.0918 177.835 -116.7206 -4.36494 -3.4397 14.239 32.1271 -28.5067 0.0 105.432 0.0 72.0729 29.1267 -13.7353 0.0 0.0 0.0 0.0 0.0 0.0 113.59 6.55225 -10.6633 -16.7912 62.1648 27.1185 0.0 92.0529 0.0 -57.1412 35.429 13.6139 0.0 0.0 0.0 0.0 0.0 0.0 31.0466 -25.4268 30.2424 0.0 37.337 0.0 -17.1185 5.64118 -0.419503 0.0 -37.441498 0.0 3.60257 -11.8303 -22.4785 0.0 59.9394 0.0 10.2854 -19.188202 -7.82969 0.0 -36.073097 0.0 
  -3.7256500244140627 10.006099853515625 8.056939697265625 8.69187 78.1814 384.84 10.2221 -4.96279 12.3456 1.7861 3.43951 3.98523 -54.5315 44.8277 788.038 178.674 -81.3457 178.121 -116.4012 -4.60328 -3.61136 14.0687 32.4625 -29.4364 0.0 105.953 0.0 69.7943 29.6085 -13.1165 0.0 0.0 0.0 0.0 0.0 0.0 113.4378 6.21278 -10.4933 -17.3872 62.2457 28.0691 0.0 92.2844 0.0 -57.574 35.4052 13.885 0.0 0.0 0.0 0.0 0.0 0.0 31.1946 -25.4621 30.2585 0.0 37.2522 0.0 -17.0293 5.65654 -0.474373 0.0 -37.4597 0.0 3.77461 -11.7965 -22.6131 0.0 59.8594 0.0 10.2852 -19.0929 -7.81557 0.0 -36.1877 0.0 
  -3.7382101440429687 10.00510009765625 8.058150024414063 8.33742 78.0906 385.306 9.98438 -4.74339 12.4282 1.59256 3.55555 4.09878 -54.2167 44.8457 787.752 178.627 -81.5794 178.034 -116.2166 -4.78189 -3.68655 14.467 32.9179 -29.8194 0.0 106.151 0.0 70.4782 29.1381 -13.1546 0.0 0.0 0.0 0.0 0.0 0.0 113.366104 5.94768 -10.5114 -18.0683 62.2756 29.0185 0.0 92.5152 0.0 -58.6701 35.3965 14.6016 0.0 0.0 0.0 0.0 0.0 0.0 31.341 -25.423 30.3792 0.0 37.1008 0.0 -16.9359 5.7571096 -0.591104 0.0 -37.6689 0.0 3.92015 -11.7327 -22.7865 0.0 59.7591 0.0 10.2493 -18.9962 -7.82368 0.0 -36.3313 0.0 
  -3.7493099975585937 10.005800170898437 8.061380004882812 7.67176 78.0012 386.057 9.79491 -4.56392 12.4791 1.51032 3.66757 4.17271 -54.066 44.9453 787.492 178.823 -81.7174 178.256 -116.161896 -4.94908 -3.86841 14.7312 33.2801 -30.2188 0.0 106.327 0.0 70.5966 28.9891 -13.1976 0.0 0.0 0.0 0.0 0.0 0.0 113.2796 5.72329 -10.4619 -18.5016 62.4183 29.5572 0.0 92.7042 0.0 -59.8328 35.4266 15.1812 0.0 0.0 0.0 0.0 0.0 0.0 31.5335 -25.3901 30.5062 0.0 36.9366 0.0 -16.9306 5.7359 -0.654762 0.0 -37.510902 0.0 4.12022 -11.6504 -22.9358 0.0 59.5458 0.0 10.2349 -18.872501 -7.78376 0.0 -36.477898 0.0 
  -3.76010986328125 10.005700073242188 8.065750122070312 6.88437 77.921 386.913 9.5887 -4.37379 12.5265 1.49686 3.65716 4.24644 -54.0065 45.108 787.311 178.535 -81.8427 178.057 -116.0474 -5.06628 -3.9016 14.8557 33.5064 -30.6129 0.0 106.498 0.0 70.399 29.0207 -13.0195 0.0 0.0 0.0 0.0 0.0 0.0 113.1931 5.4869 -10.356 -18.5526 62.6425 29.7201 0.0 92.9584 0.0 -60.2846 35.3403 15.4615 0.0 0.0 0.0 0.0 0.0 0.0 31.7235 -25.3316 30.5752 0.0 36.6961 0.0 -17.1102 5.70243 -0.749152 0.0 -37.4264 0.0 4.3382 -11.5689 -23.094 0.0 59.3111 0.0 10.2256 -18.7253 -7.72153 0.0 -36.628998 0.0 
